<?xml version="1.0" encoding="UTF-8"?>
<svg width="32" height="32" version="1.1" viewBox="0 0 32 32" xmlns="http://www.w3.org/2000/svg">
	<defs>
		<linearGradient id="LG" x1="13.5" x2="19.5" y1="7.5" y2="23.5" gradientUnits="userSpaceOnUse">
			<stop offset="0" stop-color="#fdbe11"/>
			<stop offset="1" stop-color="#95ea1c"/>
		</linearGradient>
	</defs>
	<circle cx="16" cy="16" r="16" fill="#1f1c21"/>
	<path d="m6.1267 19.3 9.8733 5.7003 8.4963-4.9056c0.95662-0.55222 1.2844-1.7754 0.73209-2.732-0.55228-0.95659-1.7755-1.2843-2.7321-0.73205l-1.4964 0.8645c-0.6188 0.35727-1.3812 0.35726-2 1e-9 -0.6188-0.35726-1-1.0179-1-1.7324l8e-9 -8.7624m-4 1 1e-9 6.6072zm-6.7395 7.3359 8.7397 5.0451z" fill="none" stroke="#000" stroke-linecap="round" stroke-linejoin="round" stroke-width="6"/>
	<path d="m6.1267 19.3 9.8733 5.7003 8.4963-4.9056c0.95662-0.55222 1.2844-1.7754 0.73209-2.732-0.55228-0.95659-1.7755-1.2843-2.7321-0.73205l-1.4964 0.8645c-0.6188 0.35727-1.3812 0.35726-2 1e-9 -0.6188-0.35726-1-1.0179-1-1.7324l8e-9 -8.7624m-4 1 1e-9 6.6072zm-6.7395 7.3359 8.7397 5.0451z" fill="none" stroke="url(#LG)" stroke-linecap="round" stroke-linejoin="round" stroke-width="2"/>
</svg>
