<?xml version="1.0" encoding="UTF-8"?>
<svg width="32" height="32" version="1.1" viewBox="0 0 32 32" xmlns="http://www.w3.org/2000/svg">
	<defs>
		<linearGradient id="LG" x1="10.15" x2="20.5" y1="7.38" y2="23.5" gradientUnits="userSpaceOnUse">
			<stop offset="0" stop-color="#95ea1c"/>
			<stop offset="1" stop-color="#32c0ea"/>
		</linearGradient>
	</defs>
	<circle cx="16" cy="16" r="16" fill="#1f1c21"/>
	<path d="m22 9v10c0 3.3137-2.6863 6-6 6s-6-2.6863-6-6v-10c0-1.1046 0.89543-2 2-2s2 0.89543 2 2v10c0 1.1046 0.89543 2 2 2s2-0.89543 2-2v-11" fill="none" stroke="#000" stroke-linecap="round" stroke-linejoin="round" stroke-width="6"/>
	<path d="m22 9v10c0 3.3137-2.6863 6-6 6s-6-2.6863-6-6v-10c0-1.1046 0.89543-2 2-2s2 0.89543 2 2v10c0 1.1046 0.89543 2 2 2s2-0.89543 2-2v-11" fill="none" stroke="url(#LG)" stroke-linecap="round" stroke-linejoin="round" stroke-width="2"/>
</svg>
