<?xml version="1.0" encoding="UTF-8"?>
<svg width="64" height="64" version="1.1" viewBox="0 0 64 64" xmlns="http://www.w3.org/2000/svg">
	<defs>
		<linearGradient id="LG" x1="19.5" x2="43" y1="14.27" y2="46" gradientUnits="userSpaceOnUse">
			<stop offset="0" stop-color="#95ea1c"/>
			<stop offset="1" stop-color="#32c0ea"/>
		</linearGradient>
	</defs>
	<circle cx="32" cy="32" r="32" fill="#1f1c21"/>
	<path d="m32 47c5.5228 0 10-4.4772 10-10v-20c0-1.1046 0.89543-2 2-2s2 0.89543 2 2v20c0 7.732-6.268 14-14 14s-14-6.268-14-14v-18c0-3.3137 2.6863-6 6-6s6 2.6863 6 6v18c0 1.1046 0.89543 2 2 2s2-0.89543 2-2v-21c0-1.1046 0.89543-2 2-2s2 0.89543 2 2v21c0 3.3137-2.6863 6-6 6s-6-2.6863-6-6v-18c0-1.1046-0.89543-2-2-2s-2 0.89543-2 2v18c0 5.5228 4.4772 10 10 10z" fill="none" stroke="#000" stroke-linejoin="round" stroke-width="6"/>
	<path d="m32 47c5.5228 0 10-4.4772 10-10v-20c0-1.1046 0.89543-2 2-2s2 0.89543 2 2v20c0 7.732-6.268 14-14 14s-14-6.268-14-14v-18c0-3.3137 2.6863-6 6-6s6 2.6863 6 6v18c0 1.1046 0.89543 2 2 2s2-0.89543 2-2v-21c0-1.1046 0.89543-2 2-2s2 0.89543 2 2v21c0 3.3137-2.6863 6-6 6s-6-2.6863-6-6v-18c0-1.1046-0.89543-2-2-2s-2 0.89543-2 2v18c0 5.5228 4.4772 10 10 10z" fill="none" stroke="url(#LG)" stroke-linejoin="round" stroke-width="2"/>
</svg>
