<?xml version="1.0" encoding="UTF-8"?>
<svg width="64" height="64" version="1.1" viewBox="0 0 64 64" xmlns="http://www.w3.org/2000/svg">
	<defs>
		<linearGradient id="LG" x1="25.5" x2="38" y1="12.5" y2="48" gradientUnits="userSpaceOnUse">
			<stop offset="0" stop-color="#fdbe11"/>
			<stop offset="1" stop-color="#95ea1c"/>
		</linearGradient>
	</defs>
	<circle cx="32" cy="32" r="32" fill="#1f1c21"/>
	<path d="m13.56 40.35 18.44 10.646 16-9.2383c2.8697-1.6569 3.8521-5.3256 2.1953-8.1953s-5.3256-3.8522-8.1953-2.1953l-4 2.3086v-18.68c4.296e-6 -1.1046-0.89544-2-2-2-1.1046 4.296e-6 -2 0.89543-2 2v18.68c-6.214e-6 1.4291 0.76241 2.7503 2 3.4648 1.2376 0.71452 2.7624 0.71453 4 0l4-2.3105c0.95658-0.55229 2.1801-0.22416 2.7324 0.73242 0.55228 0.95658 0.22416 2.1801-0.73242 2.7324l-14 8.082-19.038-10.991m4.8658-6.4279 8.1725 4.7176v-19.68m4 1v20.988zm-13.306 17.926 15.306 8.8356z" fill="none" stroke="#000" stroke-linecap="round" stroke-linejoin="round" stroke-width="6"/>
	<path d="m13.56 40.35 18.44 10.646 16-9.2383c2.8697-1.6569 3.8521-5.3256 2.1953-8.1953s-5.3256-3.8522-8.1953-2.1953l-4 2.3086v-18.68c4.296e-6 -1.1046-0.89544-2-2-2-1.1046 4.296e-6 -2 0.89543-2 2v18.68c-6.214e-6 1.4291 0.76241 2.7503 2 3.4648 1.2376 0.71452 2.7624 0.71453 4 0l4-2.3105c0.95658-0.55229 2.1801-0.22416 2.7324 0.73242 0.55228 0.95658 0.22416 2.1801-0.73242 2.7324l-14 8.082-19.038-10.991m4.8658-6.4279 8.1725 4.7176v-19.68m4 1v20.988zm-13.306 17.926 15.306 8.8356z" fill="none" stroke="url(#LG)" stroke-linecap="round" stroke-linejoin="round" stroke-width="2"/>
</svg>
